<svg xmlns="http://www.w3.org/2000/svg" width="272" height="80" viewBox="0 0 272 80"><rect width="100%" height="100%" fill="#DDDDDD"/><path fill="#999999" d="M68.62 49.86h7.42q.8 0 1.27.45t.47 1.19v2.96H57.94v-1.64q0-.5.21-1.05t.67-.99l8.78-8.8q1.1-1.12 1.97-2.14.87-1.02 1.45-2.02t.89-2.03q.31-1.03.31-2.17 0-1.04-.3-1.83t-.85-1.33q-.55-.54-1.32-.81t-1.73-.27q-.88 0-1.63.25-.75.25-1.33.7-.58.45-.98 1.05-.4.6-.6 1.32-.34.92-.88 1.22-.54.3-1.56.14l-2.6-.46q.3-2.08 1.16-3.65.86-1.57 2.15-2.62t2.96-1.58q1.67-.53 3.59-.53 2 0 3.66.59 1.66.59 2.84 1.67t1.84 2.6q.66 1.52.66 3.38 0 1.6-.47 2.96-.47 1.36-1.26 2.6t-1.85 2.4q-1.06 1.16-2.22 2.36l-6.52 6.66q.94-.28 1.87-.43.93-.15 1.77-.15Zm12.86-24.32h19.98v2.14q0 .96-.2 1.55-.2.59-.4.99L89.9 52.78q-.34.7-.96 1.19-.62.49-1.66.49H83.7l11.18-22.1q.38-.68.75-1.25t.83-1.09H82.62q-.46 0-.8-.34t-.34-.8v-3.34Zm33.54 24.32h7.42q.8 0 1.27.45t.47 1.19v2.96h-19.84v-1.64q0-.5.21-1.05t.67-.99l8.78-8.8q1.1-1.12 1.97-2.14.87-1.02 1.45-2.02t.89-2.03q.31-1.03.31-2.17 0-1.04-.3-1.83t-.85-1.33q-.55-.54-1.32-.81t-1.73-.27q-.88 0-1.63.25-.75.25-1.33.7-.58.45-.98 1.05-.4.6-.6 1.32-.34.92-.88 1.22-.54.3-1.56.14l-2.6-.46q.3-2.08 1.16-3.65.86-1.57 2.15-2.62t2.96-1.58q1.67-.53 3.59-.53 2 0 3.66.59 1.66.59 2.84 1.67t1.84 2.6q.66 1.52.66 3.38 0 1.6-.47 2.96-.47 1.36-1.26 2.6t-1.85 2.4q-1.06 1.16-2.22 2.36l-6.52 6.66q.94-.28 1.87-.43.93-.15 1.77-.15Zm41.76-2.02-2.62 2.58-6.78-6.78-6.84 6.82-2.62-2.58 6.84-6.86-6.52-6.52 2.6-2.6 6.52 6.52 6.48-6.48 2.64 2.6-6.5 6.5 6.8 6.8Zm23.48 3.08q1.22 0 2.14-.35.92-.35 1.55-.97t.95-1.48q.32-.86.32-1.86 0-2.38-1.32-3.6-1.32-1.22-3.64-1.22-2.32 0-3.64 1.22-1.32 1.22-1.32 3.6 0 1 .32 1.86.32.86.95 1.48.63.62 1.55.97t2.14.35Zm0-21.98q-1.1 0-1.9.34-.8.34-1.33.91-.53.57-.78 1.31-.25.74-.25 1.56 0 .86.21 1.67.21.81.71 1.44.5.63 1.32 1.01.82.38 2.02.38 1.2 0 2.02-.38.82-.38 1.32-1.01.5-.63.71-1.44.21-.81.21-1.67 0-.82-.26-1.56-.26-.74-.78-1.31-.52-.57-1.32-.91-.8-.34-1.9-.34Zm4.88 10.44q2.64.86 3.9 2.63 1.26 1.77 1.26 4.33 0 1.92-.73 3.48t-2.05 2.66q-1.32 1.1-3.17 1.7-1.85.6-4.09.6-2.24 0-4.09-.6-1.85-.6-3.17-1.7-1.32-1.1-2.05-2.66-.73-1.56-.73-3.48 0-2.56 1.26-4.33t3.9-2.63q-2.1-.88-3.15-2.5-1.05-1.62-1.05-3.9 0-1.64.67-3.06.67-1.42 1.87-2.47 1.2-1.05 2.87-1.64 1.67-.59 3.67-.59t3.67.59q1.67.59 2.87 1.64 1.2 1.05 1.87 2.47.67 1.42.67 3.06 0 2.28-1.05 3.9t-3.15 2.5Zm28.92.62q0 3.78-.81 6.57-.81 2.79-2.24 4.61-1.43 1.82-3.38 2.71-1.95.89-4.21.89t-4.19-.89q-1.93-.89-3.35-2.71-1.42-1.82-2.22-4.61-.8-2.79-.8-6.57 0-3.8.8-6.58.8-2.78 2.22-4.6 1.42-1.82 3.35-2.71 1.93-.89 4.19-.89 2.26 0 4.21.89 1.95.89 3.38 2.71 1.43 1.82 2.24 4.6.81 2.78.81 6.58Zm-5.1 0q0-3.14-.46-5.2t-1.23-3.28q-.77-1.22-1.77-1.71t-2.08-.49q-1.06 0-2.05.49-.99.49-1.75 1.71t-1.21 3.28q-.45 2.06-.45 5.2t.45 5.2q.45 2.06 1.21 3.28.76 1.22 1.75 1.71t2.05.49q1.08 0 2.08-.49t1.77-1.71q.77-1.22 1.23-3.28.46-2.06.46-5.2Z"/></svg>